<svg width="32" height="32" viewBox="0 0 32 32" fill="none" xmlns="http://www.w3.org/2000/svg">
<path d="M28 9V23C28 24.3261 27.4732 25.5979 26.5355 26.5355C25.5979 27.4732 24.3261 28 23 28H9C7.67392 28 6.40215 27.4732 5.46447 26.5355C4.52678 25.5979 4 24.3261 4 23V11.24C4 10.4444 4.31607 9.68129 4.87868 9.11868C5.44129 8.55607 6.20435 8.24 7 8.24H10.32L13.68 4.88C14.2421 4.31723 15.0046 4.0007 15.8 4H23C24.3261 4 25.5979 4.52678 26.5355 5.46447C27.4732 6.40215 28 7.67392 28 9Z" fill="url(#paint0_linear_1931_29922)"/>
<path d="M28 13.24V23C28 24.3261 27.4732 25.5979 26.5355 26.5355C25.5979 27.4732 24.3261 28 23 28H9C7.67392 28 6.40215 27.4732 5.46447 26.5355C4.52678 25.5979 4 24.3261 4 23V11.24C4 10.4444 4.31607 9.68129 4.87868 9.11869C5.44129 8.55608 6.20435 8.24001 7 8.24001H23C24.3261 8.24001 25.5979 8.76679 26.5355 9.70447C27.4732 10.6422 28 11.9139 28 13.24Z" fill="url(#paint1_linear_1931_29922)"/>
<path d="M5.07 16.62H4V19.62H5.07V16.62Z" fill="#8F2B00"/>
<path d="M28 16.62H15.19V19.62H28V16.62Z" fill="#8F2B00"/>
<path d="M13.19 15.89H7.07001C6.80479 15.89 6.55044 15.9954 6.3629 16.1829C6.17536 16.3704 6.07001 16.6248 6.07001 16.89V19.35C6.07001 19.6152 6.17536 19.8696 6.3629 20.0571C6.55044 20.2446 6.80479 20.35 7.07001 20.35H13.19C13.4552 20.35 13.7096 20.2446 13.8971 20.0571C14.0847 19.8696 14.19 19.6152 14.19 19.35V16.89C14.19 16.7587 14.1641 16.6286 14.1139 16.5073C14.0636 16.386 13.99 16.2758 13.8971 16.1829C13.8043 16.09 13.694 16.0164 13.5727 15.9661C13.4514 15.9159 13.3213 15.89 13.19 15.89ZM13.49 19.35C13.49 19.4296 13.4584 19.5059 13.4021 19.5621C13.3459 19.6184 13.2696 19.65 13.19 19.65H7.07001C6.99124 19.6475 6.91638 19.6151 6.86065 19.5594C6.80492 19.5036 6.77251 19.4288 6.77001 19.35V16.89C6.77001 16.8104 6.80161 16.7341 6.85788 16.6779C6.91414 16.6216 6.99044 16.59 7.07001 16.59H13.19C13.2298 16.5886 13.2694 16.5954 13.3064 16.61C13.3435 16.6246 13.3771 16.6466 13.4052 16.6748C13.4334 16.7029 13.4554 16.7365 13.47 16.7736C13.4846 16.8106 13.4914 16.8502 13.49 16.89V19.35Z" fill="#8F2B00"/>
<path d="M6.77002 17.74H10C10.1008 17.74 10.1975 17.78 10.2687 17.8513C10.34 17.9226 10.38 18.0192 10.38 18.12C10.38 18.2208 10.34 18.3174 10.2687 18.3887C10.1975 18.46 10.1008 18.5 10 18.5H6.77002V17.73V17.74Z" fill="#8F2B00"/>
<defs>
<linearGradient id="paint0_linear_1931_29922" x1="16" y1="4" x2="16" y2="28" gradientUnits="userSpaceOnUse">
<stop stop-color="#E0A22B"/>
<stop offset="1" stop-color="#F8D216"/>
</linearGradient>
<linearGradient id="paint1_linear_1931_29922" x1="16" y1="8.24001" x2="16" y2="28" gradientUnits="userSpaceOnUse">
<stop stop-color="#F8D216"/>
<stop offset="1" stop-color="#E0A22B"/>
</linearGradient>
</defs>
</svg>
